<?xml version="1.0" encoding="utf-8" standalone="no"?>
<!DOCTYPE svg PUBLIC "-//W3C//DTD SVG 1.1//EN"
  "http://www.w3.org/Graphics/SVG/1.1/DTD/svg11.dtd">
<svg xmlns:xlink="http://www.w3.org/1999/xlink" width="720pt" height="432pt" viewBox="0 0 720 432" xmlns="http://www.w3.org/2000/svg" version="1.1">
 <metadata>
  <rdf:RDF xmlns:dc="http://purl.org/dc/elements/1.1/" xmlns:cc="http://creativecommons.org/ns#" xmlns:rdf="http://www.w3.org/1999/02/22-rdf-syntax-ns#">
   <cc:Work>
    <dc:type rdf:resource="http://purl.org/dc/dcmitype/StillImage"/>
    <dc:date>2025-06-05T20:55:15.781395</dc:date>
    <dc:format>image/svg+xml</dc:format>
    <dc:creator>
     <cc:Agent>
      <dc:title>Matplotlib v3.10.3, https://matplotlib.org/</dc:title>
     </cc:Agent>
    </dc:creator>
   </cc:Work>
  </rdf:RDF>
 </metadata>
 <defs>
  <style type="text/css">*{stroke-linejoin: round; stroke-linecap: butt}</style>
 </defs>
 <g id="figure_1">
  <g id="patch_1">
   <path d="M 0 432 
L 720 432 
L 720 0 
L 0 0 
z
" style="fill: #ffffff"/>
  </g>
  <g id="axes_1">
   <g id="patch_2">
    <path d="M 55.67625 383.92875 
L 707.04 383.92875 
L 707.04 30.5475 
L 55.67625 30.5475 
z
" style="fill: #ffffff"/>
   </g>
   <g id="matplotlib.axis_1">
    <g id="xtick_1">
     <g id="line2d_1">
      <path d="M 85.283693 383.92875 
L 85.283693 30.5475 
" clip-path="url(#pb99dbd8dcd)" style="fill: none; stroke: #cccccc; stroke-linecap: round"/>
     </g>
     <g id="text_1">
      <!-- 30 -->
      <g style="fill: #262626" transform="translate(79.166662 401.302344) scale(0.11 -0.11)">
       <defs>
        <path id="ArialMT-33" d="M 269 1209 
L 831 1284 
Q 928 806 1161 595 
Q 1394 384 1728 384 
Q 2125 384 2398 659 
Q 2672 934 2672 1341 
Q 2672 1728 2419 1979 
Q 2166 2231 1775 2231 
Q 1616 2231 1378 2169 
L 1441 2663 
Q 1497 2656 1531 2656 
Q 1891 2656 2178 2843 
Q 2466 3031 2466 3422 
Q 2466 3731 2256 3934 
Q 2047 4138 1716 4138 
Q 1388 4138 1169 3931 
Q 950 3725 888 3313 
L 325 3413 
Q 428 3978 793 4289 
Q 1159 4600 1703 4600 
Q 2078 4600 2393 4439 
Q 2709 4278 2876 4000 
Q 3044 3722 3044 3409 
Q 3044 3113 2884 2869 
Q 2725 2625 2413 2481 
Q 2819 2388 3044 2092 
Q 3269 1797 3269 1353 
Q 3269 753 2831 336 
Q 2394 -81 1725 -81 
Q 1122 -81 723 278 
Q 325 638 269 1209 
z
" transform="scale(0.015625)"/>
        <path id="ArialMT-30" d="M 266 2259 
Q 266 3072 433 3567 
Q 600 4063 929 4331 
Q 1259 4600 1759 4600 
Q 2128 4600 2406 4451 
Q 2684 4303 2865 4023 
Q 3047 3744 3150 3342 
Q 3253 2941 3253 2259 
Q 3253 1453 3087 958 
Q 2922 463 2592 192 
Q 2263 -78 1759 -78 
Q 1097 -78 719 397 
Q 266 969 266 2259 
z
M 844 2259 
Q 844 1131 1108 757 
Q 1372 384 1759 384 
Q 2147 384 2411 759 
Q 2675 1134 2675 2259 
Q 2675 3391 2411 3762 
Q 2147 4134 1753 4134 
Q 1366 4134 1134 3806 
Q 844 3388 844 2259 
z
" transform="scale(0.015625)"/>
       </defs>
       <use xlink:href="#ArialMT-33"/>
       <use xlink:href="#ArialMT-30" transform="translate(55.615234 0)"/>
      </g>
     </g>
    </g>
    <g id="xtick_2">
     <g id="line2d_2">
      <path d="M 183.97517 383.92875 
L 183.97517 30.5475 
" clip-path="url(#pb99dbd8dcd)" style="fill: none; stroke: #cccccc; stroke-linecap: round"/>
     </g>
     <g id="text_2">
      <!-- 35 -->
      <g style="fill: #262626" transform="translate(177.858139 401.302344) scale(0.11 -0.11)">
       <defs>
        <path id="ArialMT-35" d="M 266 1200 
L 856 1250 
Q 922 819 1161 601 
Q 1400 384 1738 384 
Q 2144 384 2425 690 
Q 2706 997 2706 1503 
Q 2706 1984 2436 2262 
Q 2166 2541 1728 2541 
Q 1456 2541 1237 2417 
Q 1019 2294 894 2097 
L 366 2166 
L 809 4519 
L 3088 4519 
L 3088 3981 
L 1259 3981 
L 1013 2750 
Q 1425 3038 1878 3038 
Q 2478 3038 2890 2622 
Q 3303 2206 3303 1553 
Q 3303 931 2941 478 
Q 2500 -78 1738 -78 
Q 1113 -78 717 272 
Q 322 622 266 1200 
z
" transform="scale(0.015625)"/>
       </defs>
       <use xlink:href="#ArialMT-33"/>
       <use xlink:href="#ArialMT-35" transform="translate(55.615234 0)"/>
      </g>
     </g>
    </g>
    <g id="xtick_3">
     <g id="line2d_3">
      <path d="M 282.666648 383.92875 
L 282.666648 30.5475 
" clip-path="url(#pb99dbd8dcd)" style="fill: none; stroke: #cccccc; stroke-linecap: round"/>
     </g>
     <g id="text_3">
      <!-- 40 -->
      <g style="fill: #262626" transform="translate(276.549616 401.302344) scale(0.11 -0.11)">
       <defs>
        <path id="ArialMT-34" d="M 2069 0 
L 2069 1097 
L 81 1097 
L 81 1613 
L 2172 4581 
L 2631 4581 
L 2631 1613 
L 3250 1613 
L 3250 1097 
L 2631 1097 
L 2631 0 
L 2069 0 
z
M 2069 1613 
L 2069 3678 
L 634 1613 
L 2069 1613 
z
" transform="scale(0.015625)"/>
       </defs>
       <use xlink:href="#ArialMT-34"/>
       <use xlink:href="#ArialMT-30" transform="translate(55.615234 0)"/>
      </g>
     </g>
    </g>
    <g id="xtick_4">
     <g id="line2d_4">
      <path d="M 381.358125 383.92875 
L 381.358125 30.5475 
" clip-path="url(#pb99dbd8dcd)" style="fill: none; stroke: #cccccc; stroke-linecap: round"/>
     </g>
     <g id="text_4">
      <!-- 45 -->
      <g style="fill: #262626" transform="translate(375.241094 401.302344) scale(0.11 -0.11)">
       <use xlink:href="#ArialMT-34"/>
       <use xlink:href="#ArialMT-35" transform="translate(55.615234 0)"/>
      </g>
     </g>
    </g>
    <g id="xtick_5">
     <g id="line2d_5">
      <path d="M 480.049602 383.92875 
L 480.049602 30.5475 
" clip-path="url(#pb99dbd8dcd)" style="fill: none; stroke: #cccccc; stroke-linecap: round"/>
     </g>
     <g id="text_5">
      <!-- 50 -->
      <g style="fill: #262626" transform="translate(473.932571 401.302344) scale(0.11 -0.11)">
       <use xlink:href="#ArialMT-35"/>
       <use xlink:href="#ArialMT-30" transform="translate(55.615234 0)"/>
      </g>
     </g>
    </g>
    <g id="xtick_6">
     <g id="line2d_6">
      <path d="M 578.74108 383.92875 
L 578.74108 30.5475 
" clip-path="url(#pb99dbd8dcd)" style="fill: none; stroke: #cccccc; stroke-linecap: round"/>
     </g>
     <g id="text_6">
      <!-- 55 -->
      <g style="fill: #262626" transform="translate(572.624048 401.302344) scale(0.11 -0.11)">
       <use xlink:href="#ArialMT-35"/>
       <use xlink:href="#ArialMT-35" transform="translate(55.615234 0)"/>
      </g>
     </g>
    </g>
    <g id="xtick_7">
     <g id="line2d_7">
      <path d="M 677.432557 383.92875 
L 677.432557 30.5475 
" clip-path="url(#pb99dbd8dcd)" style="fill: none; stroke: #cccccc; stroke-linecap: round"/>
     </g>
     <g id="text_7">
      <!-- 60 -->
      <g style="fill: #262626" transform="translate(671.315526 401.302344) scale(0.11 -0.11)">
       <defs>
        <path id="ArialMT-36" d="M 3184 3459 
L 2625 3416 
Q 2550 3747 2413 3897 
Q 2184 4138 1850 4138 
Q 1581 4138 1378 3988 
Q 1113 3794 959 3422 
Q 806 3050 800 2363 
Q 1003 2672 1297 2822 
Q 1591 2972 1913 2972 
Q 2475 2972 2870 2558 
Q 3266 2144 3266 1488 
Q 3266 1056 3080 686 
Q 2894 316 2569 119 
Q 2244 -78 1831 -78 
Q 1128 -78 684 439 
Q 241 956 241 2144 
Q 241 3472 731 4075 
Q 1159 4600 1884 4600 
Q 2425 4600 2770 4297 
Q 3116 3994 3184 3459 
z
M 888 1484 
Q 888 1194 1011 928 
Q 1134 663 1356 523 
Q 1578 384 1822 384 
Q 2178 384 2434 671 
Q 2691 959 2691 1453 
Q 2691 1928 2437 2201 
Q 2184 2475 1800 2475 
Q 1419 2475 1153 2201 
Q 888 1928 888 1484 
z
" transform="scale(0.015625)"/>
       </defs>
       <use xlink:href="#ArialMT-36"/>
       <use xlink:href="#ArialMT-30" transform="translate(55.615234 0)"/>
      </g>
     </g>
    </g>
    <g id="text_8">
     <!-- Temperatura Média (°C) -->
     <g style="fill: #262626" transform="translate(317.279063 416.224219) scale(0.12 -0.12)">
      <defs>
       <path id="ArialMT-54" d="M 1659 0 
L 1659 4041 
L 150 4041 
L 150 4581 
L 3781 4581 
L 3781 4041 
L 2266 4041 
L 2266 0 
L 1659 0 
z
" transform="scale(0.015625)"/>
       <path id="ArialMT-65" d="M 2694 1069 
L 3275 997 
Q 3138 488 2766 206 
Q 2394 -75 1816 -75 
Q 1088 -75 661 373 
Q 234 822 234 1631 
Q 234 2469 665 2931 
Q 1097 3394 1784 3394 
Q 2450 3394 2872 2941 
Q 3294 2488 3294 1666 
Q 3294 1616 3291 1516 
L 816 1516 
Q 847 969 1125 678 
Q 1403 388 1819 388 
Q 2128 388 2347 550 
Q 2566 713 2694 1069 
z
M 847 1978 
L 2700 1978 
Q 2663 2397 2488 2606 
Q 2219 2931 1791 2931 
Q 1403 2931 1139 2672 
Q 875 2413 847 1978 
z
" transform="scale(0.015625)"/>
       <path id="ArialMT-6d" d="M 422 0 
L 422 3319 
L 925 3319 
L 925 2853 
Q 1081 3097 1340 3245 
Q 1600 3394 1931 3394 
Q 2300 3394 2536 3241 
Q 2772 3088 2869 2813 
Q 3263 3394 3894 3394 
Q 4388 3394 4653 3120 
Q 4919 2847 4919 2278 
L 4919 0 
L 4359 0 
L 4359 2091 
Q 4359 2428 4304 2576 
Q 4250 2725 4106 2815 
Q 3963 2906 3769 2906 
Q 3419 2906 3187 2673 
Q 2956 2441 2956 1928 
L 2956 0 
L 2394 0 
L 2394 2156 
Q 2394 2531 2256 2718 
Q 2119 2906 1806 2906 
Q 1569 2906 1367 2781 
Q 1166 2656 1075 2415 
Q 984 2175 984 1722 
L 984 0 
L 422 0 
z
" transform="scale(0.015625)"/>
       <path id="ArialMT-70" d="M 422 -1272 
L 422 3319 
L 934 3319 
L 934 2888 
Q 1116 3141 1344 3267 
Q 1572 3394 1897 3394 
Q 2322 3394 2647 3175 
Q 2972 2956 3137 2557 
Q 3303 2159 3303 1684 
Q 3303 1175 3120 767 
Q 2938 359 2589 142 
Q 2241 -75 1856 -75 
Q 1575 -75 1351 44 
Q 1128 163 984 344 
L 984 -1272 
L 422 -1272 
z
M 931 1641 
Q 931 1000 1190 694 
Q 1450 388 1819 388 
Q 2194 388 2461 705 
Q 2728 1022 2728 1688 
Q 2728 2322 2467 2637 
Q 2206 2953 1844 2953 
Q 1484 2953 1207 2617 
Q 931 2281 931 1641 
z
" transform="scale(0.015625)"/>
       <path id="ArialMT-72" d="M 416 0 
L 416 3319 
L 922 3319 
L 922 2816 
Q 1116 3169 1280 3281 
Q 1444 3394 1641 3394 
Q 1925 3394 2219 3213 
L 2025 2691 
Q 1819 2813 1613 2813 
Q 1428 2813 1281 2702 
Q 1134 2591 1072 2394 
Q 978 2094 978 1738 
L 978 0 
L 416 0 
z
" transform="scale(0.015625)"/>
       <path id="ArialMT-61" d="M 2588 409 
Q 2275 144 1986 34 
Q 1697 -75 1366 -75 
Q 819 -75 525 192 
Q 231 459 231 875 
Q 231 1119 342 1320 
Q 453 1522 633 1644 
Q 813 1766 1038 1828 
Q 1203 1872 1538 1913 
Q 2219 1994 2541 2106 
Q 2544 2222 2544 2253 
Q 2544 2597 2384 2738 
Q 2169 2928 1744 2928 
Q 1347 2928 1158 2789 
Q 969 2650 878 2297 
L 328 2372 
Q 403 2725 575 2942 
Q 747 3159 1072 3276 
Q 1397 3394 1825 3394 
Q 2250 3394 2515 3294 
Q 2781 3194 2906 3042 
Q 3031 2891 3081 2659 
Q 3109 2516 3109 2141 
L 3109 1391 
Q 3109 606 3145 398 
Q 3181 191 3288 0 
L 2700 0 
Q 2613 175 2588 409 
z
M 2541 1666 
Q 2234 1541 1622 1453 
Q 1275 1403 1131 1340 
Q 988 1278 909 1158 
Q 831 1038 831 891 
Q 831 666 1001 516 
Q 1172 366 1500 366 
Q 1825 366 2078 508 
Q 2331 650 2450 897 
Q 2541 1088 2541 1459 
L 2541 1666 
z
" transform="scale(0.015625)"/>
       <path id="ArialMT-74" d="M 1650 503 
L 1731 6 
Q 1494 -44 1306 -44 
Q 1000 -44 831 53 
Q 663 150 594 308 
Q 525 466 525 972 
L 525 2881 
L 113 2881 
L 113 3319 
L 525 3319 
L 525 4141 
L 1084 4478 
L 1084 3319 
L 1650 3319 
L 1650 2881 
L 1084 2881 
L 1084 941 
Q 1084 700 1114 631 
Q 1144 563 1211 522 
Q 1278 481 1403 481 
Q 1497 481 1650 503 
z
" transform="scale(0.015625)"/>
       <path id="ArialMT-75" d="M 2597 0 
L 2597 488 
Q 2209 -75 1544 -75 
Q 1250 -75 995 37 
Q 741 150 617 320 
Q 494 491 444 738 
Q 409 903 409 1263 
L 409 3319 
L 972 3319 
L 972 1478 
Q 972 1038 1006 884 
Q 1059 663 1231 536 
Q 1403 409 1656 409 
Q 1909 409 2131 539 
Q 2353 669 2445 892 
Q 2538 1116 2538 1541 
L 2538 3319 
L 3100 3319 
L 3100 0 
L 2597 0 
z
" transform="scale(0.015625)"/>
       <path id="ArialMT-20" transform="scale(0.015625)"/>
       <path id="ArialMT-4d" d="M 475 0 
L 475 4581 
L 1388 4581 
L 2472 1338 
Q 2622 884 2691 659 
Q 2769 909 2934 1394 
L 4031 4581 
L 4847 4581 
L 4847 0 
L 4263 0 
L 4263 3834 
L 2931 0 
L 2384 0 
L 1059 3900 
L 1059 0 
L 475 0 
z
" transform="scale(0.015625)"/>
       <path id="ArialMT-e9" d="M 2694 1069 
L 3275 997 
Q 3138 488 2766 206 
Q 2394 -75 1816 -75 
Q 1088 -75 661 373 
Q 234 822 234 1631 
Q 234 2469 665 2931 
Q 1097 3394 1784 3394 
Q 2450 3394 2872 2941 
Q 3294 2488 3294 1666 
Q 3294 1616 3291 1516 
L 816 1516 
Q 847 969 1125 678 
Q 1403 388 1819 388 
Q 2128 388 2347 550 
Q 2566 713 2694 1069 
z
M 847 1978 
L 2700 1978 
Q 2663 2397 2488 2606 
Q 2219 2931 1791 2931 
Q 1403 2931 1139 2672 
Q 875 2413 847 1978 
z
M 1454 3731 
L 1869 4606 
L 2607 4606 
L 1919 3731 
L 1454 3731 
z
" transform="scale(0.015625)"/>
       <path id="ArialMT-64" d="M 2575 0 
L 2575 419 
Q 2259 -75 1647 -75 
Q 1250 -75 917 144 
Q 584 363 401 755 
Q 219 1147 219 1656 
Q 219 2153 384 2558 
Q 550 2963 881 3178 
Q 1213 3394 1622 3394 
Q 1922 3394 2156 3267 
Q 2391 3141 2538 2938 
L 2538 4581 
L 3097 4581 
L 3097 0 
L 2575 0 
z
M 797 1656 
Q 797 1019 1065 703 
Q 1334 388 1700 388 
Q 2069 388 2326 689 
Q 2584 991 2584 1609 
Q 2584 2291 2321 2609 
Q 2059 2928 1675 2928 
Q 1300 2928 1048 2622 
Q 797 2316 797 1656 
z
" transform="scale(0.015625)"/>
       <path id="ArialMT-69" d="M 425 3934 
L 425 4581 
L 988 4581 
L 988 3934 
L 425 3934 
z
M 425 0 
L 425 3319 
L 988 3319 
L 988 0 
L 425 0 
z
" transform="scale(0.015625)"/>
       <path id="ArialMT-28" d="M 1497 -1347 
Q 1031 -759 709 28 
Q 388 816 388 1659 
Q 388 2403 628 3084 
Q 909 3875 1497 4659 
L 1900 4659 
Q 1522 4009 1400 3731 
Q 1209 3300 1100 2831 
Q 966 2247 966 1656 
Q 966 153 1900 -1347 
L 1497 -1347 
z
" transform="scale(0.015625)"/>
       <path id="ArialMT-b0" d="M 400 3794 
Q 400 4153 654 4406 
Q 909 4659 1266 4659 
Q 1628 4659 1881 4406 
Q 2134 4153 2134 3794 
Q 2134 3434 1879 3179 
Q 1625 2925 1266 2925 
Q 909 2925 654 3178 
Q 400 3431 400 3794 
z
M 741 3794 
Q 741 3575 895 3420 
Q 1050 3266 1269 3266 
Q 1484 3266 1639 3420 
Q 1794 3575 1794 3794 
Q 1794 4013 1639 4167 
Q 1484 4322 1269 4322 
Q 1050 4322 895 4167 
Q 741 4013 741 3794 
z
" transform="scale(0.015625)"/>
       <path id="ArialMT-43" d="M 3763 1606 
L 4369 1453 
Q 4178 706 3683 314 
Q 3188 -78 2472 -78 
Q 1731 -78 1267 223 
Q 803 525 561 1097 
Q 319 1669 319 2325 
Q 319 3041 592 3573 
Q 866 4106 1370 4382 
Q 1875 4659 2481 4659 
Q 3169 4659 3637 4309 
Q 4106 3959 4291 3325 
L 3694 3184 
Q 3534 3684 3231 3912 
Q 2928 4141 2469 4141 
Q 1941 4141 1586 3887 
Q 1231 3634 1087 3207 
Q 944 2781 944 2328 
Q 944 1744 1114 1308 
Q 1284 872 1643 656 
Q 2003 441 2422 441 
Q 2931 441 3284 734 
Q 3638 1028 3763 1606 
z
" transform="scale(0.015625)"/>
       <path id="ArialMT-29" d="M 791 -1347 
L 388 -1347 
Q 1322 153 1322 1656 
Q 1322 2244 1188 2822 
Q 1081 3291 891 3722 
Q 769 4003 388 4659 
L 791 4659 
Q 1378 3875 1659 3084 
Q 1900 2403 1900 1659 
Q 1900 816 1576 28 
Q 1253 -759 791 -1347 
z
" transform="scale(0.015625)"/>
      </defs>
      <use xlink:href="#ArialMT-54"/>
      <use xlink:href="#ArialMT-65" transform="translate(49.958984 0)"/>
      <use xlink:href="#ArialMT-6d" transform="translate(105.574219 0)"/>
      <use xlink:href="#ArialMT-70" transform="translate(188.875 0)"/>
      <use xlink:href="#ArialMT-65" transform="translate(244.490234 0)"/>
      <use xlink:href="#ArialMT-72" transform="translate(300.105469 0)"/>
      <use xlink:href="#ArialMT-61" transform="translate(333.40625 0)"/>
      <use xlink:href="#ArialMT-74" transform="translate(389.021484 0)"/>
      <use xlink:href="#ArialMT-75" transform="translate(416.804688 0)"/>
      <use xlink:href="#ArialMT-72" transform="translate(472.419922 0)"/>
      <use xlink:href="#ArialMT-61" transform="translate(505.720703 0)"/>
      <use xlink:href="#ArialMT-20" transform="translate(561.335938 0)"/>
      <use xlink:href="#ArialMT-4d" transform="translate(589.119141 0)"/>
      <use xlink:href="#ArialMT-e9" transform="translate(672.419922 0)"/>
      <use xlink:href="#ArialMT-64" transform="translate(728.035156 0)"/>
      <use xlink:href="#ArialMT-69" transform="translate(783.650391 0)"/>
      <use xlink:href="#ArialMT-61" transform="translate(805.867188 0)"/>
      <use xlink:href="#ArialMT-20" transform="translate(861.482422 0)"/>
      <use xlink:href="#ArialMT-28" transform="translate(889.265625 0)"/>
      <use xlink:href="#ArialMT-b0" transform="translate(922.566406 0)"/>
      <use xlink:href="#ArialMT-43" transform="translate(962.556641 0)"/>
      <use xlink:href="#ArialMT-29" transform="translate(1034.773438 0)"/>
     </g>
    </g>
   </g>
   <g id="matplotlib.axis_2">
    <g id="ytick_1">
     <g id="line2d_8">
      <path d="M 55.67625 364.72077 
L 707.04 364.72077 
" clip-path="url(#pb99dbd8dcd)" style="fill: none; stroke: #cccccc; stroke-linecap: round"/>
     </g>
     <g id="text_9">
      <!-- 200 -->
      <g style="fill: #262626" transform="translate(27.825156 368.657567) scale(0.11 -0.11)">
       <defs>
        <path id="ArialMT-32" d="M 3222 541 
L 3222 0 
L 194 0 
Q 188 203 259 391 
Q 375 700 629 1000 
Q 884 1300 1366 1694 
Q 2113 2306 2375 2664 
Q 2638 3022 2638 3341 
Q 2638 3675 2398 3904 
Q 2159 4134 1775 4134 
Q 1369 4134 1125 3890 
Q 881 3647 878 3216 
L 300 3275 
Q 359 3922 746 4261 
Q 1134 4600 1788 4600 
Q 2447 4600 2831 4234 
Q 3216 3869 3216 3328 
Q 3216 3053 3103 2787 
Q 2991 2522 2730 2228 
Q 2469 1934 1863 1422 
Q 1356 997 1212 845 
Q 1069 694 975 541 
L 3222 541 
z
" transform="scale(0.015625)"/>
       </defs>
       <use xlink:href="#ArialMT-32"/>
       <use xlink:href="#ArialMT-30" transform="translate(55.615234 0)"/>
       <use xlink:href="#ArialMT-30" transform="translate(111.230469 0)"/>
      </g>
     </g>
    </g>
    <g id="ytick_2">
     <g id="line2d_9">
      <path d="M 55.67625 311.94919 
L 707.04 311.94919 
" clip-path="url(#pb99dbd8dcd)" style="fill: none; stroke: #cccccc; stroke-linecap: round"/>
     </g>
     <g id="text_10">
      <!-- 250 -->
      <g style="fill: #262626" transform="translate(27.825156 315.885986) scale(0.11 -0.11)">
       <use xlink:href="#ArialMT-32"/>
       <use xlink:href="#ArialMT-35" transform="translate(55.615234 0)"/>
       <use xlink:href="#ArialMT-30" transform="translate(111.230469 0)"/>
      </g>
     </g>
    </g>
    <g id="ytick_3">
     <g id="line2d_10">
      <path d="M 55.67625 259.177609 
L 707.04 259.177609 
" clip-path="url(#pb99dbd8dcd)" style="fill: none; stroke: #cccccc; stroke-linecap: round"/>
     </g>
     <g id="text_11">
      <!-- 300 -->
      <g style="fill: #262626" transform="translate(27.825156 263.114406) scale(0.11 -0.11)">
       <use xlink:href="#ArialMT-33"/>
       <use xlink:href="#ArialMT-30" transform="translate(55.615234 0)"/>
       <use xlink:href="#ArialMT-30" transform="translate(111.230469 0)"/>
      </g>
     </g>
    </g>
    <g id="ytick_4">
     <g id="line2d_11">
      <path d="M 55.67625 206.406028 
L 707.04 206.406028 
" clip-path="url(#pb99dbd8dcd)" style="fill: none; stroke: #cccccc; stroke-linecap: round"/>
     </g>
     <g id="text_12">
      <!-- 350 -->
      <g style="fill: #262626" transform="translate(27.825156 210.342825) scale(0.11 -0.11)">
       <use xlink:href="#ArialMT-33"/>
       <use xlink:href="#ArialMT-35" transform="translate(55.615234 0)"/>
       <use xlink:href="#ArialMT-30" transform="translate(111.230469 0)"/>
      </g>
     </g>
    </g>
    <g id="ytick_5">
     <g id="line2d_12">
      <path d="M 55.67625 153.634448 
L 707.04 153.634448 
" clip-path="url(#pb99dbd8dcd)" style="fill: none; stroke: #cccccc; stroke-linecap: round"/>
     </g>
     <g id="text_13">
      <!-- 400 -->
      <g style="fill: #262626" transform="translate(27.825156 157.571245) scale(0.11 -0.11)">
       <use xlink:href="#ArialMT-34"/>
       <use xlink:href="#ArialMT-30" transform="translate(55.615234 0)"/>
       <use xlink:href="#ArialMT-30" transform="translate(111.230469 0)"/>
      </g>
     </g>
    </g>
    <g id="ytick_6">
     <g id="line2d_13">
      <path d="M 55.67625 100.862867 
L 707.04 100.862867 
" clip-path="url(#pb99dbd8dcd)" style="fill: none; stroke: #cccccc; stroke-linecap: round"/>
     </g>
     <g id="text_14">
      <!-- 450 -->
      <g style="fill: #262626" transform="translate(27.825156 104.799664) scale(0.11 -0.11)">
       <use xlink:href="#ArialMT-34"/>
       <use xlink:href="#ArialMT-35" transform="translate(55.615234 0)"/>
       <use xlink:href="#ArialMT-30" transform="translate(111.230469 0)"/>
      </g>
     </g>
    </g>
    <g id="ytick_7">
     <g id="line2d_14">
      <path d="M 55.67625 48.091286 
L 707.04 48.091286 
" clip-path="url(#pb99dbd8dcd)" style="fill: none; stroke: #cccccc; stroke-linecap: round"/>
     </g>
     <g id="text_15">
      <!-- 500 -->
      <g style="fill: #262626" transform="translate(27.825156 52.028083) scale(0.11 -0.11)">
       <use xlink:href="#ArialMT-35"/>
       <use xlink:href="#ArialMT-30" transform="translate(55.615234 0)"/>
       <use xlink:href="#ArialMT-30" transform="translate(111.230469 0)"/>
      </g>
     </g>
    </g>
    <g id="text_16">
     <!-- Produção de Sorvete (unidades) -->
     <g style="fill: #262626" transform="translate(21.299531 293.619375) rotate(-90) scale(0.12 -0.12)">
      <defs>
       <path id="ArialMT-50" d="M 494 0 
L 494 4581 
L 2222 4581 
Q 2678 4581 2919 4538 
Q 3256 4481 3484 4323 
Q 3713 4166 3852 3881 
Q 3991 3597 3991 3256 
Q 3991 2672 3619 2267 
Q 3247 1863 2275 1863 
L 1100 1863 
L 1100 0 
L 494 0 
z
M 1100 2403 
L 2284 2403 
Q 2872 2403 3119 2622 
Q 3366 2841 3366 3238 
Q 3366 3525 3220 3729 
Q 3075 3934 2838 4000 
Q 2684 4041 2272 4041 
L 1100 4041 
L 1100 2403 
z
" transform="scale(0.015625)"/>
       <path id="ArialMT-6f" d="M 213 1659 
Q 213 2581 725 3025 
Q 1153 3394 1769 3394 
Q 2453 3394 2887 2945 
Q 3322 2497 3322 1706 
Q 3322 1066 3130 698 
Q 2938 331 2570 128 
Q 2203 -75 1769 -75 
Q 1072 -75 642 372 
Q 213 819 213 1659 
z
M 791 1659 
Q 791 1022 1069 705 
Q 1347 388 1769 388 
Q 2188 388 2466 706 
Q 2744 1025 2744 1678 
Q 2744 2294 2464 2611 
Q 2184 2928 1769 2928 
Q 1347 2928 1069 2612 
Q 791 2297 791 1659 
z
" transform="scale(0.015625)"/>
       <path id="ArialMT-e7" d="M 2588 1216 
L 3141 1144 
Q 3050 572 2676 248 
Q 2303 -75 1759 -75 
Q 1078 -75 664 370 
Q 250 816 250 1647 
Q 250 2184 428 2587 
Q 606 2991 970 3192 
Q 1334 3394 1763 3394 
Q 2303 3394 2647 3120 
Q 2991 2847 3088 2344 
L 2541 2259 
Q 2463 2594 2264 2762 
Q 2066 2931 1784 2931 
Q 1359 2931 1093 2626 
Q 828 2322 828 1663 
Q 828 994 1084 691 
Q 1341 388 1753 388 
Q 2084 388 2306 591 
Q 2528 794 2588 1216 
z
M 1283 -417 
L 1446 136 
L 1864 136 
L 1761 -199 
Q 2027 -230 2161 -362 
Q 2296 -495 2296 -658 
Q 2296 -892 2071 -1072 
Q 1846 -1252 1392 -1252 
Q 1136 -1252 942 -1214 
L 977 -849 
Q 1177 -861 1271 -861 
Q 1564 -861 1683 -780 
Q 1774 -717 1774 -627 
Q 1774 -570 1738 -526 
Q 1702 -483 1605 -451 
Q 1508 -420 1283 -417 
z
" transform="scale(0.015625)"/>
       <path id="ArialMT-e3" d="M 2588 409 
Q 2275 144 1986 34 
Q 1697 -75 1366 -75 
Q 819 -75 525 192 
Q 231 459 231 875 
Q 231 1119 342 1320 
Q 453 1522 633 1644 
Q 813 1766 1038 1828 
Q 1203 1872 1538 1913 
Q 2219 1994 2541 2106 
Q 2544 2222 2544 2253 
Q 2544 2597 2384 2738 
Q 2169 2928 1744 2928 
Q 1347 2928 1158 2789 
Q 969 2650 878 2297 
L 328 2372 
Q 403 2725 575 2942 
Q 747 3159 1072 3276 
Q 1397 3394 1825 3394 
Q 2250 3394 2515 3294 
Q 2781 3194 2906 3042 
Q 3031 2891 3081 2659 
Q 3109 2516 3109 2141 
L 3109 1391 
Q 3109 606 3145 398 
Q 3181 191 3288 0 
L 2700 0 
Q 2613 175 2588 409 
z
M 2541 1666 
Q 2234 1541 1622 1453 
Q 1275 1403 1131 1340 
Q 988 1278 909 1158 
Q 831 1038 831 891 
Q 831 666 1001 516 
Q 1172 366 1500 366 
Q 1825 366 2078 508 
Q 2331 650 2450 897 
Q 2541 1088 2541 1459 
L 2541 1666 
z
M 718 3809 
Q 715 4134 896 4328 
Q 1074 4522 1352 4522 
Q 1546 4522 1880 4353 
Q 2065 4259 2174 4259 
Q 2274 4259 2327 4314 
Q 2380 4369 2402 4531 
L 2809 4531 
Q 2799 4175 2629 3997 
Q 2459 3819 2196 3819 
Q 1999 3819 1677 3994 
Q 1468 4106 1371 4106 
Q 1265 4106 1199 4031 
Q 1130 3956 1134 3809 
L 718 3809 
z
" transform="scale(0.015625)"/>
       <path id="ArialMT-53" d="M 288 1472 
L 859 1522 
Q 900 1178 1048 958 
Q 1197 738 1509 602 
Q 1822 466 2213 466 
Q 2559 466 2825 569 
Q 3091 672 3220 851 
Q 3350 1031 3350 1244 
Q 3350 1459 3225 1620 
Q 3100 1781 2813 1891 
Q 2628 1963 1997 2114 
Q 1366 2266 1113 2400 
Q 784 2572 623 2826 
Q 463 3081 463 3397 
Q 463 3744 659 4045 
Q 856 4347 1234 4503 
Q 1613 4659 2075 4659 
Q 2584 4659 2973 4495 
Q 3363 4331 3572 4012 
Q 3781 3694 3797 3291 
L 3216 3247 
Q 3169 3681 2898 3903 
Q 2628 4125 2100 4125 
Q 1550 4125 1298 3923 
Q 1047 3722 1047 3438 
Q 1047 3191 1225 3031 
Q 1400 2872 2139 2705 
Q 2878 2538 3153 2413 
Q 3553 2228 3743 1945 
Q 3934 1663 3934 1294 
Q 3934 928 3725 604 
Q 3516 281 3123 101 
Q 2731 -78 2241 -78 
Q 1619 -78 1198 103 
Q 778 284 539 648 
Q 300 1013 288 1472 
z
" transform="scale(0.015625)"/>
       <path id="ArialMT-76" d="M 1344 0 
L 81 3319 
L 675 3319 
L 1388 1331 
Q 1503 1009 1600 663 
Q 1675 925 1809 1294 
L 2547 3319 
L 3125 3319 
L 1869 0 
L 1344 0 
z
" transform="scale(0.015625)"/>
       <path id="ArialMT-6e" d="M 422 0 
L 422 3319 
L 928 3319 
L 928 2847 
Q 1294 3394 1984 3394 
Q 2284 3394 2536 3286 
Q 2788 3178 2913 3003 
Q 3038 2828 3088 2588 
Q 3119 2431 3119 2041 
L 3119 0 
L 2556 0 
L 2556 2019 
Q 2556 2363 2490 2533 
Q 2425 2703 2258 2804 
Q 2091 2906 1866 2906 
Q 1506 2906 1245 2678 
Q 984 2450 984 1813 
L 984 0 
L 422 0 
z
" transform="scale(0.015625)"/>
       <path id="ArialMT-73" d="M 197 991 
L 753 1078 
Q 800 744 1014 566 
Q 1228 388 1613 388 
Q 2000 388 2187 545 
Q 2375 703 2375 916 
Q 2375 1106 2209 1216 
Q 2094 1291 1634 1406 
Q 1016 1563 777 1677 
Q 538 1791 414 1992 
Q 291 2194 291 2438 
Q 291 2659 392 2848 
Q 494 3038 669 3163 
Q 800 3259 1026 3326 
Q 1253 3394 1513 3394 
Q 1903 3394 2198 3281 
Q 2494 3169 2634 2976 
Q 2775 2784 2828 2463 
L 2278 2388 
Q 2241 2644 2061 2787 
Q 1881 2931 1553 2931 
Q 1166 2931 1000 2803 
Q 834 2675 834 2503 
Q 834 2394 903 2306 
Q 972 2216 1119 2156 
Q 1203 2125 1616 2013 
Q 2213 1853 2448 1751 
Q 2684 1650 2818 1456 
Q 2953 1263 2953 975 
Q 2953 694 2789 445 
Q 2625 197 2315 61 
Q 2006 -75 1616 -75 
Q 969 -75 630 194 
Q 291 463 197 991 
z
" transform="scale(0.015625)"/>
      </defs>
      <use xlink:href="#ArialMT-50"/>
      <use xlink:href="#ArialMT-72" transform="translate(66.699219 0)"/>
      <use xlink:href="#ArialMT-6f" transform="translate(100 0)"/>
      <use xlink:href="#ArialMT-64" transform="translate(155.615234 0)"/>
      <use xlink:href="#ArialMT-75" transform="translate(211.230469 0)"/>
      <use xlink:href="#ArialMT-e7" transform="translate(266.845703 0)"/>
      <use xlink:href="#ArialMT-e3" transform="translate(316.845703 0)"/>
      <use xlink:href="#ArialMT-6f" transform="translate(372.460938 0)"/>
      <use xlink:href="#ArialMT-20" transform="translate(428.076172 0)"/>
      <use xlink:href="#ArialMT-64" transform="translate(455.859375 0)"/>
      <use xlink:href="#ArialMT-65" transform="translate(511.474609 0)"/>
      <use xlink:href="#ArialMT-20" transform="translate(567.089844 0)"/>
      <use xlink:href="#ArialMT-53" transform="translate(594.873047 0)"/>
      <use xlink:href="#ArialMT-6f" transform="translate(661.572266 0)"/>
      <use xlink:href="#ArialMT-72" transform="translate(717.1875 0)"/>
      <use xlink:href="#ArialMT-76" transform="translate(750.488281 0)"/>
      <use xlink:href="#ArialMT-65" transform="translate(800.488281 0)"/>
      <use xlink:href="#ArialMT-74" transform="translate(856.103516 0)"/>
      <use xlink:href="#ArialMT-65" transform="translate(883.886719 0)"/>
      <use xlink:href="#ArialMT-20" transform="translate(939.501953 0)"/>
      <use xlink:href="#ArialMT-28" transform="translate(967.285156 0)"/>
      <use xlink:href="#ArialMT-75" transform="translate(1000.585938 0)"/>
      <use xlink:href="#ArialMT-6e" transform="translate(1056.201172 0)"/>
      <use xlink:href="#ArialMT-69" transform="translate(1111.816406 0)"/>
      <use xlink:href="#ArialMT-64" transform="translate(1134.033203 0)"/>
      <use xlink:href="#ArialMT-61" transform="translate(1189.648438 0)"/>
      <use xlink:href="#ArialMT-64" transform="translate(1245.263672 0)"/>
      <use xlink:href="#ArialMT-65" transform="translate(1300.878906 0)"/>
      <use xlink:href="#ArialMT-73" transform="translate(1356.494141 0)"/>
      <use xlink:href="#ArialMT-29" transform="translate(1406.494141 0)"/>
     </g>
    </g>
   </g>
   <g id="PathCollection_1">
    <defs>
     <path id="me7a968859a" d="M 0 3.872983 
C 1.027127 3.872983 2.012324 3.464901 2.738613 2.738613 
C 3.464901 2.012324 3.872983 1.027127 3.872983 0 
C 3.872983 -1.027127 3.464901 -2.012324 2.738613 -2.738613 
C 2.012324 -3.464901 1.027127 -3.872983 0 -3.872983 
C -1.027127 -3.872983 -2.012324 -3.464901 -2.738613 -2.738613 
C -3.464901 -2.012324 -3.872983 -1.027127 -3.872983 0 
C -3.872983 1.027127 -3.464901 2.012324 -2.738613 2.738613 
C -2.012324 3.464901 -1.027127 3.872983 0 3.872983 
z
" style="stroke: #1f77b4; stroke-opacity: 0.8"/>
    </defs>
    <g clip-path="url(#pb99dbd8dcd)">
     <use xlink:href="#me7a968859a" x="85.283693" y="364.72077" style="fill: #1f77b4; fill-opacity: 0.8; stroke: #1f77b4; stroke-opacity: 0.8"/>
     <use xlink:href="#me7a968859a" x="105.021989" y="343.612138" style="fill: #1f77b4; fill-opacity: 0.8; stroke: #1f77b4; stroke-opacity: 0.8"/>
     <use xlink:href="#me7a968859a" x="124.760284" y="354.166454" style="fill: #1f77b4; fill-opacity: 0.8; stroke: #1f77b4; stroke-opacity: 0.8"/>
     <use xlink:href="#me7a968859a" x="144.49858" y="333.057822" style="fill: #1f77b4; fill-opacity: 0.8; stroke: #1f77b4; stroke-opacity: 0.8"/>
     <use xlink:href="#me7a968859a" x="164.236875" y="322.503506" style="fill: #1f77b4; fill-opacity: 0.8; stroke: #1f77b4; stroke-opacity: 0.8"/>
     <use xlink:href="#me7a968859a" x="183.97517" y="311.94919" style="fill: #1f77b4; fill-opacity: 0.8; stroke: #1f77b4; stroke-opacity: 0.8"/>
     <use xlink:href="#me7a968859a" x="203.713466" y="301.394873" style="fill: #1f77b4; fill-opacity: 0.8; stroke: #1f77b4; stroke-opacity: 0.8"/>
     <use xlink:href="#me7a968859a" x="223.451761" y="290.840557" style="fill: #1f77b4; fill-opacity: 0.8; stroke: #1f77b4; stroke-opacity: 0.8"/>
     <use xlink:href="#me7a968859a" x="243.190057" y="280.286241" style="fill: #1f77b4; fill-opacity: 0.8; stroke: #1f77b4; stroke-opacity: 0.8"/>
     <use xlink:href="#me7a968859a" x="262.928352" y="269.731925" style="fill: #1f77b4; fill-opacity: 0.8; stroke: #1f77b4; stroke-opacity: 0.8"/>
     <use xlink:href="#me7a968859a" x="282.666648" y="259.177609" style="fill: #1f77b4; fill-opacity: 0.8; stroke: #1f77b4; stroke-opacity: 0.8"/>
     <use xlink:href="#me7a968859a" x="302.404943" y="248.623293" style="fill: #1f77b4; fill-opacity: 0.8; stroke: #1f77b4; stroke-opacity: 0.8"/>
     <use xlink:href="#me7a968859a" x="322.143239" y="238.068977" style="fill: #1f77b4; fill-opacity: 0.8; stroke: #1f77b4; stroke-opacity: 0.8"/>
     <use xlink:href="#me7a968859a" x="341.881534" y="227.514661" style="fill: #1f77b4; fill-opacity: 0.8; stroke: #1f77b4; stroke-opacity: 0.8"/>
     <use xlink:href="#me7a968859a" x="361.61983" y="216.960344" style="fill: #1f77b4; fill-opacity: 0.8; stroke: #1f77b4; stroke-opacity: 0.8"/>
     <use xlink:href="#me7a968859a" x="381.358125" y="206.406028" style="fill: #1f77b4; fill-opacity: 0.8; stroke: #1f77b4; stroke-opacity: 0.8"/>
     <use xlink:href="#me7a968859a" x="401.09642" y="195.851712" style="fill: #1f77b4; fill-opacity: 0.8; stroke: #1f77b4; stroke-opacity: 0.8"/>
     <use xlink:href="#me7a968859a" x="420.834716" y="185.297396" style="fill: #1f77b4; fill-opacity: 0.8; stroke: #1f77b4; stroke-opacity: 0.8"/>
     <use xlink:href="#me7a968859a" x="440.573011" y="174.74308" style="fill: #1f77b4; fill-opacity: 0.8; stroke: #1f77b4; stroke-opacity: 0.8"/>
     <use xlink:href="#me7a968859a" x="460.311307" y="164.188764" style="fill: #1f77b4; fill-opacity: 0.8; stroke: #1f77b4; stroke-opacity: 0.8"/>
     <use xlink:href="#me7a968859a" x="480.049602" y="153.634448" style="fill: #1f77b4; fill-opacity: 0.8; stroke: #1f77b4; stroke-opacity: 0.8"/>
     <use xlink:href="#me7a968859a" x="499.787898" y="143.080132" style="fill: #1f77b4; fill-opacity: 0.8; stroke: #1f77b4; stroke-opacity: 0.8"/>
     <use xlink:href="#me7a968859a" x="519.526193" y="132.525815" style="fill: #1f77b4; fill-opacity: 0.8; stroke: #1f77b4; stroke-opacity: 0.8"/>
     <use xlink:href="#me7a968859a" x="539.264489" y="121.971499" style="fill: #1f77b4; fill-opacity: 0.8; stroke: #1f77b4; stroke-opacity: 0.8"/>
     <use xlink:href="#me7a968859a" x="559.002784" y="111.417183" style="fill: #1f77b4; fill-opacity: 0.8; stroke: #1f77b4; stroke-opacity: 0.8"/>
     <use xlink:href="#me7a968859a" x="578.74108" y="100.862867" style="fill: #1f77b4; fill-opacity: 0.8; stroke: #1f77b4; stroke-opacity: 0.8"/>
     <use xlink:href="#me7a968859a" x="598.479375" y="90.308551" style="fill: #1f77b4; fill-opacity: 0.8; stroke: #1f77b4; stroke-opacity: 0.8"/>
     <use xlink:href="#me7a968859a" x="618.21767" y="79.754235" style="fill: #1f77b4; fill-opacity: 0.8; stroke: #1f77b4; stroke-opacity: 0.8"/>
     <use xlink:href="#me7a968859a" x="637.955966" y="69.199919" style="fill: #1f77b4; fill-opacity: 0.8; stroke: #1f77b4; stroke-opacity: 0.8"/>
     <use xlink:href="#me7a968859a" x="657.694261" y="58.645603" style="fill: #1f77b4; fill-opacity: 0.8; stroke: #1f77b4; stroke-opacity: 0.8"/>
     <use xlink:href="#me7a968859a" x="677.432557" y="48.091286" style="fill: #1f77b4; fill-opacity: 0.8; stroke: #1f77b4; stroke-opacity: 0.8"/>
    </g>
   </g>
   <g id="FillBetweenPolyCollection_1">
    <defs>
     <path id="m64e1522af7" d="M 85.283693 -70.771973 
L 85.283693 -64.134034 
L 91.264995 -67.375218 
L 97.246296 -70.616401 
L 103.227598 -73.85991 
L 109.2089 -77.104793 
L 115.190201 -80.349676 
L 121.171503 -83.594559 
L 127.152805 -86.839442 
L 133.134106 -90.084325 
L 139.115408 -93.329208 
L 145.09671 -96.574092 
L 151.078011 -99.818859 
L 157.059313 -103.060499 
L 163.040615 -106.302139 
L 169.021916 -109.543779 
L 175.003218 -112.785419 
L 180.98452 -116.027162 
L 186.965821 -119.268967 
L 192.947123 -122.510773 
L 198.928425 -125.752578 
L 204.909726 -128.994383 
L 210.891028 -132.236188 
L 216.87233 -135.481857 
L 222.853631 -138.7294 
L 228.834933 -141.976942 
L 234.816235 -145.224484 
L 240.797536 -148.46972 
L 246.778838 -151.712652 
L 252.760139 -154.955585 
L 258.741441 -158.198518 
L 264.722743 -161.442356 
L 270.704044 -164.687648 
L 276.685346 -167.928907 
L 282.666648 -171.170166 
L 288.647949 -174.411367 
L 294.629251 -177.655366 
L 300.610553 -180.898128 
L 306.591854 -184.140891 
L 312.573156 -187.384149 
L 318.554458 -190.637771 
L 324.535759 -193.889888 
L 330.517061 -197.134971 
L 336.498363 -200.381608 
L 342.479664 -203.623329 
L 348.460966 -206.863559 
L 354.442268 -210.098308 
L 360.423569 -213.338374 
L 366.404871 -216.578965 
L 372.386173 -219.819723 
L 378.367474 -223.060516 
L 384.348776 -226.301295 
L 390.330077 -229.544725 
L 396.311379 -232.786864 
L 402.292681 -236.02581 
L 408.273982 -239.26856 
L 414.255284 -242.511309 
L 420.236586 -245.745419 
L 426.217887 -248.985779 
L 432.199189 -252.226321 
L 438.180491 -255.461587 
L 444.161792 -258.690648 
L 450.143094 -261.939319 
L 456.124396 -265.178375 
L 462.105697 -268.407584 
L 468.086999 -271.631336 
L 474.068301 -274.867301 
L 480.049602 -278.093223 
L 486.030904 -281.316834 
L 492.012206 -284.524257 
L 497.993507 -287.713194 
L 503.974809 -290.875831 
L 509.956111 -294.050638 
L 515.937412 -297.208522 
L 521.918714 -300.370049 
L 527.900015 -303.514584 
L 533.881317 -306.681339 
L 539.862619 -309.834201 
L 545.84392 -312.99371 
L 551.825222 -316.156356 
L 557.806524 -319.305953 
L 563.787825 -322.469923 
L 569.769127 -325.62933 
L 575.750429 -328.784483 
L 581.73173 -331.948684 
L 587.713032 -335.097521 
L 593.694334 -338.253277 
L 599.675635 -341.403678 
L 605.656937 -344.55931 
L 611.638239 -347.694042 
L 617.61954 -350.840649 
L 623.600842 -353.987062 
L 629.582144 -357.134486 
L 635.563445 -360.281424 
L 641.544747 -363.432799 
L 647.526049 -366.577653 
L 653.50735 -369.727385 
L 659.488652 -372.877164 
L 665.469954 -376.026943 
L 671.451255 -379.173558 
L 677.432557 -382.309506 
L 677.432557 -385.389716 
L 677.432557 -385.389716 
L 671.451255 -382.146086 
L 665.469954 -378.902344 
L 659.488652 -375.658461 
L 653.50735 -372.40912 
L 647.526049 -369.16358 
L 641.544747 -365.923317 
L 635.563445 -362.683054 
L 629.582144 -359.437326 
L 623.600842 -356.183241 
L 617.61954 -352.93888 
L 611.638239 -349.700008 
L 605.656937 -346.461135 
L 599.675635 -343.220648 
L 593.694334 -339.970108 
L 587.713032 -336.717597 
L 581.73173 -333.464903 
L 575.750429 -330.215525 
L 569.769127 -326.975651 
L 563.787825 -323.74371 
L 557.806524 -320.508314 
L 551.825222 -317.270495 
L 545.84392 -314.030029 
L 539.862619 -310.786627 
L 533.881317 -307.541926 
L 527.900015 -304.299188 
L 521.918714 -301.05629 
L 515.937412 -297.824735 
L 509.956111 -294.593441 
L 503.974809 -291.373959 
L 497.993507 -288.161288 
L 492.012206 -284.984617 
L 486.030904 -281.810408 
L 480.049602 -278.644179 
L 474.068301 -275.485101 
L 468.086999 -272.327803 
L 462.105697 -269.179918 
L 456.124396 -266.020264 
L 450.143094 -262.842504 
L 444.161792 -259.698592 
L 438.180491 -256.563851 
L 432.199189 -253.407446 
L 426.217887 -250.250482 
L 420.236586 -247.090977 
L 414.255284 -243.93532 
L 408.273982 -240.781927 
L 402.292681 -237.630567 
L 396.311379 -234.489539 
L 390.330077 -231.333284 
L 384.348776 -228.176668 
L 378.367474 -225.025019 
L 372.386173 -221.873369 
L 366.404871 -218.719502 
L 360.423569 -215.569493 
L 354.442268 -212.419276 
L 348.460966 -209.268245 
L 342.479664 -206.116905 
L 336.498363 -202.965379 
L 330.517061 -199.827123 
L 324.535759 -196.689502 
L 318.554458 -193.535569 
L 312.573156 -190.389889 
L 306.591854 -187.233868 
L 300.610553 -184.077602 
L 294.629251 -180.921188 
L 288.647949 -177.764774 
L 282.666648 -174.617295 
L 276.685346 -171.470232 
L 270.704044 -168.32317 
L 264.722743 -165.176108 
L 258.741441 -162.024235 
L 252.760139 -158.869583 
L 246.778838 -155.714931 
L 240.797536 -152.569817 
L 234.816235 -149.426574 
L 228.834933 -146.283332 
L 222.853631 -143.14009 
L 216.87233 -139.996848 
L 210.891028 -136.853606 
L 204.909726 -133.707485 
L 198.928425 -130.560715 
L 192.947123 -127.413946 
L 186.965821 -124.267176 
L 180.98452 -121.120406 
L 175.003218 -117.973637 
L 169.021916 -114.826867 
L 163.040615 -111.680097 
L 157.059313 -108.533327 
L 151.078011 -105.386558 
L 145.09671 -102.239788 
L 139.115408 -99.093018 
L 133.134106 -95.946249 
L 127.152805 -92.799479 
L 121.171503 -89.652709 
L 115.190201 -86.505939 
L 109.2089 -83.35917 
L 103.227598 -80.2124 
L 97.246296 -77.06563 
L 91.264995 -73.918861 
L 85.283693 -70.771973 
z
" style="stroke: #ffffff; stroke-opacity: 0.15"/>
    </defs>
    <g clip-path="url(#pb99dbd8dcd)">
     <use xlink:href="#m64e1522af7" x="0" y="432" style="fill: #dc143c; fill-opacity: 0.15; stroke: #ffffff; stroke-opacity: 0.15"/>
    </g>
   </g>
   <g id="line2d_15">
    <path d="M 85.283693 364.656934 
L 91.264995 361.459946 
L 97.246296 358.262958 
L 103.227598 355.06597 
L 109.2089 351.868982 
L 115.190201 348.671994 
L 121.171503 345.475006 
L 127.152805 342.278018 
L 133.134106 339.08103 
L 139.115408 335.884042 
L 145.09671 332.687054 
L 151.078011 329.490066 
L 157.059313 326.293078 
L 163.040615 323.09609 
L 169.021916 319.899102 
L 175.003218 316.702114 
L 180.98452 313.505126 
L 186.965821 310.308138 
L 192.947123 307.11115 
L 198.928425 303.914162 
L 204.909726 300.717174 
L 210.891028 297.520186 
L 216.87233 294.323198 
L 222.853631 291.12621 
L 228.834933 287.929222 
L 234.816235 284.732234 
L 240.797536 281.535246 
L 246.778838 278.338258 
L 252.760139 275.14127 
L 258.741441 271.944282 
L 264.722743 268.747294 
L 270.704044 265.550306 
L 276.685346 262.353318 
L 282.666648 259.15633 
L 288.647949 255.959342 
L 294.629251 252.762354 
L 300.610553 249.565366 
L 306.591854 246.368378 
L 312.573156 243.17139 
L 318.554458 239.974402 
L 324.535759 236.777414 
L 330.517061 233.580426 
L 336.498363 230.383438 
L 342.479664 227.18645 
L 348.460966 223.989462 
L 354.442268 220.792474 
L 360.423569 217.595486 
L 366.404871 214.398498 
L 372.386173 211.20151 
L 378.367474 208.004522 
L 384.348776 204.807534 
L 390.330077 201.610546 
L 396.311379 198.413558 
L 402.292681 195.21657 
L 408.273982 192.019582 
L 414.255284 188.822594 
L 420.236586 185.625606 
L 426.217887 182.428618 
L 432.199189 179.23163 
L 438.180491 176.034642 
L 444.161792 172.837654 
L 450.143094 169.640666 
L 456.124396 166.443678 
L 462.105697 163.246691 
L 468.086999 160.049703 
L 474.068301 156.852715 
L 480.049602 153.655727 
L 486.030904 150.458739 
L 492.012206 147.261751 
L 497.993507 144.064763 
L 503.974809 140.867775 
L 509.956111 137.670787 
L 515.937412 134.473799 
L 521.918714 131.276811 
L 527.900015 128.079823 
L 533.881317 124.882835 
L 539.862619 121.685847 
L 545.84392 118.488859 
L 551.825222 115.291871 
L 557.806524 112.094883 
L 563.787825 108.897895 
L 569.769127 105.700907 
L 575.750429 102.503919 
L 581.73173 99.306931 
L 587.713032 96.109943 
L 593.694334 92.912955 
L 599.675635 89.715967 
L 605.656937 86.518979 
L 611.638239 83.321991 
L 617.61954 80.125003 
L 623.600842 76.928015 
L 629.582144 73.731027 
L 635.563445 70.534039 
L 641.544747 67.337051 
L 647.526049 64.140063 
L 653.50735 60.943075 
L 659.488652 57.746087 
L 665.469954 54.549099 
L 671.451255 51.352111 
L 677.432557 48.155123 
" clip-path="url(#pb99dbd8dcd)" style="fill: none; stroke: #dc143c; stroke-width: 2; stroke-linecap: round"/>
   </g>
   <g id="patch_3">
    <path d="M 55.67625 383.92875 
L 55.67625 30.5475 
" style="fill: none; stroke: #cccccc; stroke-width: 1.25; stroke-linejoin: miter; stroke-linecap: square"/>
   </g>
   <g id="patch_4">
    <path d="M 707.04 383.92875 
L 707.04 30.5475 
" style="fill: none; stroke: #cccccc; stroke-width: 1.25; stroke-linejoin: miter; stroke-linecap: square"/>
   </g>
   <g id="patch_5">
    <path d="M 55.67625 383.92875 
L 707.04 383.92875 
" style="fill: none; stroke: #cccccc; stroke-width: 1.25; stroke-linejoin: miter; stroke-linecap: square"/>
   </g>
   <g id="patch_6">
    <path d="M 55.67625 30.5475 
L 707.04 30.5475 
" style="fill: none; stroke: #cccccc; stroke-width: 1.25; stroke-linejoin: miter; stroke-linecap: square"/>
   </g>
   <g id="text_17">
    <!-- Produção de Sorvete vs Temperatura Média -->
    <g style="fill: #262626" transform="translate(224.985625 24.5475) scale(0.16 -0.16)">
     <use xlink:href="#ArialMT-50"/>
     <use xlink:href="#ArialMT-72" transform="translate(66.699219 0)"/>
     <use xlink:href="#ArialMT-6f" transform="translate(100 0)"/>
     <use xlink:href="#ArialMT-64" transform="translate(155.615234 0)"/>
     <use xlink:href="#ArialMT-75" transform="translate(211.230469 0)"/>
     <use xlink:href="#ArialMT-e7" transform="translate(266.845703 0)"/>
     <use xlink:href="#ArialMT-e3" transform="translate(316.845703 0)"/>
     <use xlink:href="#ArialMT-6f" transform="translate(372.460938 0)"/>
     <use xlink:href="#ArialMT-20" transform="translate(428.076172 0)"/>
     <use xlink:href="#ArialMT-64" transform="translate(455.859375 0)"/>
     <use xlink:href="#ArialMT-65" transform="translate(511.474609 0)"/>
     <use xlink:href="#ArialMT-20" transform="translate(567.089844 0)"/>
     <use xlink:href="#ArialMT-53" transform="translate(594.873047 0)"/>
     <use xlink:href="#ArialMT-6f" transform="translate(661.572266 0)"/>
     <use xlink:href="#ArialMT-72" transform="translate(717.1875 0)"/>
     <use xlink:href="#ArialMT-76" transform="translate(750.488281 0)"/>
     <use xlink:href="#ArialMT-65" transform="translate(800.488281 0)"/>
     <use xlink:href="#ArialMT-74" transform="translate(856.103516 0)"/>
     <use xlink:href="#ArialMT-65" transform="translate(883.886719 0)"/>
     <use xlink:href="#ArialMT-20" transform="translate(939.501953 0)"/>
     <use xlink:href="#ArialMT-76" transform="translate(967.285156 0)"/>
     <use xlink:href="#ArialMT-73" transform="translate(1017.285156 0)"/>
     <use xlink:href="#ArialMT-20" transform="translate(1067.285156 0)"/>
     <use xlink:href="#ArialMT-54" transform="translate(1093.318359 0)"/>
     <use xlink:href="#ArialMT-65" transform="translate(1143.277344 0)"/>
     <use xlink:href="#ArialMT-6d" transform="translate(1198.892578 0)"/>
     <use xlink:href="#ArialMT-70" transform="translate(1282.193359 0)"/>
     <use xlink:href="#ArialMT-65" transform="translate(1337.808594 0)"/>
     <use xlink:href="#ArialMT-72" transform="translate(1393.423828 0)"/>
     <use xlink:href="#ArialMT-61" transform="translate(1426.724609 0)"/>
     <use xlink:href="#ArialMT-74" transform="translate(1482.339844 0)"/>
     <use xlink:href="#ArialMT-75" transform="translate(1510.123047 0)"/>
     <use xlink:href="#ArialMT-72" transform="translate(1565.738281 0)"/>
     <use xlink:href="#ArialMT-61" transform="translate(1599.039062 0)"/>
     <use xlink:href="#ArialMT-20" transform="translate(1654.654297 0)"/>
     <use xlink:href="#ArialMT-4d" transform="translate(1682.4375 0)"/>
     <use xlink:href="#ArialMT-e9" transform="translate(1765.738281 0)"/>
     <use xlink:href="#ArialMT-64" transform="translate(1821.353516 0)"/>
     <use xlink:href="#ArialMT-69" transform="translate(1876.96875 0)"/>
     <use xlink:href="#ArialMT-61" transform="translate(1899.185547 0)"/>
    </g>
   </g>
  </g>
 </g>
 <defs>
  <clipPath id="pb99dbd8dcd">
   <rect x="55.67625" y="30.5475" width="651.36375" height="353.38125"/>
  </clipPath>
 </defs>
</svg>
